<svg width="151" height="63" viewBox="0 0 151 63" fill="none" xmlns="http://www.w3.org/2000/svg">
<g clip-path="url(#clip0)">
<path d="M67.2 19.2C65.7 19.2 64.9 20.7 64.9 23.8H69.5C69.5 20.7 68.7 19.2 67.2 19.2Z" fill="#FF7575"/>
<path d="M133.4 19.1C131.9 19.1 131.1 20.7 131.1 23.8V26.1C131.1 29.2 131.9 30.7 133.4 30.7C134.9 30.7 135.7 29.2 135.7 26.1V23.8C135.7 20.7 135 19.1 133.4 19.1Z" fill="#FF7575"/>
<path d="M0 0V47.6H150.5V0H0ZM14.8 30.7V33C14.8 34.5 13.6 35.3 11.3 35.3C9 35.3 7.9 34.6 7.8 33.1V14.5C7.8 13 9 12.3 11.2 12.3H14.7C22.4 12.3 26.2 15.4 26.2 21.5C26.2 27.6 22.5 30.7 14.8 30.7ZM34.9 33C34.9 34.5 33.7 35.3 31.4 35.3C29.1 35.3 28 34.6 27.9 33.1V21.4C27.9 19.9 29.1 19.2 31.4 19.2C33.7 19.2 34.9 20 34.9 21.5V33ZM34.9 14.6C34.9 16.1 34.1 16.9 32.6 16.9H30.3C28.8 16.9 28 16.1 28 14.6V12.3C28 10.8 28.8 10 30.3 10H32.6C34.1 10 34.9 10.8 34.9 12.3V14.6ZM55.7 21.5C55.7 23 54.5 23.7 52.2 23.7C49.9 23.7 48.7 22.9 48.7 21.4C48.7 19.9 47.9 19.2 46.4 19.2V19.1C44.9 19.1 44.1 20.7 44.1 23.8V26.1C44.1 29.2 44.9 30.7 46.4 30.7C47.9 30.7 48.7 30 48.7 28.5C48.7 27 49.9 26.2 52.2 26.2C54.5 26.2 55.6 26.9 55.7 28.4V28.5C55.7 34.6 52.6 37.6 46.5 37.6V37.7C40.4 37.7 37.3 33.9 37.3 26.2V23.9C37.3 16.2 40.4 12.3 46.5 12.3V12.4C52.6 12.3 55.7 15.4 55.7 21.5ZM76.4 35.3C76.4 36.8 75.2 37.6 72.9 37.6C70.6 37.6 69.4 36.8 69.4 35.3V30.7H64.8V33C64.8 34.5 63.6 35.3 61.3 35.3C59 35.3 57.9 34.6 57.8 33.1V23.8C57.8 16.1 60.9 12.3 67 12.3C73.1 12.3 76.2 16.1 76.2 23.8V35.3H76.4ZM96.7 35.2C94.8 36.8 92.1 37.6 88.6 37.6C85.7 37.6 83.2 36.9 81.3 35.5C79.6 34.3 78.7 32.9 78.7 31.5C78.7 29.3 80 28.2 82.7 28.2C83.7 28.2 84.7 28.6 85.7 29.5C86.8 30.3 88.3 30.8 90.2 30.8C91.7 30.8 92.5 30.3 92.5 29.3C92.5 28.8 91.4 28.3 89.1 27.9C88.8 27.8 88.1 27.6 87 27.3C86 27 85.2 26.8 84.5 26.6C82.4 25.9 80.9 25 79.9 23.9C79.1 22.8 78.7 21.6 78.7 20.2C78.7 17.9 79.6 16.1 81.4 14.7C83.3 13.2 86 12.5 89.5 12.5C92.4 12.5 94.9 13.2 96.8 14.5C98.5 15.7 99.4 16.9 99.4 18.2C99.4 20.2 98.1 21.3 95.4 21.3C94.4 21.3 93.4 20.9 92.4 20.1C91.3 19.3 89.8 18.9 87.9 18.9C86.4 18.9 85.6 19.4 85.6 20.3C85.6 20.8 86.7 21.2 89 21.6C89.3 21.7 90 21.9 91.1 22.2C92.1 22.5 92.9 22.7 93.6 22.8C94.7 23.1 95.6 23.5 96.1 23.8C96.6 24.1 97 24.3 97.3 24.6C97.6 24.8 97.9 25.1 98.2 25.4C99 26.6 99.5 28 99.5 29.5C99.5 31.7 98.5 33.7 96.7 35.2ZM119.3 35.2C117.4 36.8 114.7 37.6 111.2 37.6C108.3 37.6 105.8 36.9 103.9 35.5C102.2 34.3 101.3 32.9 101.3 31.5C101.3 29.3 102.6 28.2 105.3 28.2C106.3 28.2 107.3 28.6 108.3 29.5C109.4 30.3 110.9 30.8 112.8 30.8C114.3 30.8 115.1 30.3 115.1 29.3C115.1 28.8 114 28.3 111.7 27.9C111.4 27.8 110.7 27.6 109.6 27.3C108.6 27 107.8 26.8 107.1 26.6C105 25.9 103.5 25 102.5 23.9C101.7 22.8 101.3 21.6 101.3 20.2C101.3 17.9 102.2 16.1 104 14.7C105.9 13.2 108.6 12.5 112.1 12.5C115 12.5 117.5 13.2 119.4 14.5C121.1 15.7 122 16.9 122 18.2C122 20.2 120.7 21.3 118 21.3C117 21.3 116 20.9 115 20.1C113.9 19.3 112.4 18.9 110.5 18.9C109 18.9 108.2 19.4 108.2 20.3C108.2 20.8 109.3 21.2 111.6 21.6C111.9 21.7 112.6 21.9 113.7 22.2C114.7 22.5 115.5 22.7 116.2 22.8C117.3 23.1 118.2 23.5 118.7 23.8C119.2 24.1 119.6 24.3 119.9 24.6C120.2 24.8 120.5 25.1 120.8 25.4C121.6 26.6 122.1 28 122.1 29.5C122 31.7 121.1 33.7 119.3 35.2ZM142.6 26.1C142.6 33.8 139.5 37.6 133.4 37.6C127.3 37.6 124.2 33.8 124.2 26.1V23.8C124.2 16.1 127.3 12.2 133.4 12.2C139.5 12.2 142.6 16.1 142.6 23.8V26.1Z" fill="#FF7575"/>
<path d="M14.8 19.2V23.8C17.9 23.8 19.4 23 19.4 21.5C19.4 20 17.9 19.2 14.8 19.2Z" fill="#FF7575"/>
<path d="M106.7 52.3C104.9 51.5 102.7 52.4 102 54.2C101.8 54.6 101.7 55.1 101.7 55.6V56.9H99.4L102 61.6H104.3L101.7 56.9H103.8V55.6C103.8 54.8 104.5 54.1 105.3 54.1C106.1 54.1 106.8 54.8 106.8 55.6C106.8 56.4 106.1 56.9 106.1 56.9H108.7C109.3 55.1 108.5 53 106.7 52.3Z" fill="#FF7575"/>
<path d="M103.7 56.9L106.3 61.6H108.6L106.1 56.9H103.7Z" fill="#FF7575"/>
<path d="M122.3 53.8C122 53.8 121.7 54.1 121.7 54.4C121.7 54.8 121.7 54.9 121.7 54.9H122.6C122.8 54.8 122.9 54.6 122.9 54.4C122.9 54 122.7 53.8 122.3 53.8Z" fill="#11313C"/>
<path d="M122.6 55.8H121.7V60.2H122.6V55.8Z" fill="#11313C"/>
<path d="M128.4 59.2L127.2 55.8H125.2C125.2 55.4 125.2 55 125.3 54.6C125.6 54.5 126.3 54.5 126.4 54.5L126.9 53.6H126.1C125.4 53.6 124.9 54.1 124.4 54.6C124.3 55 124.2 55.4 124.2 55.8H123.5L123.1 56.4H124.1V60.2H125V56.4H126.2L127.8 60.2L126.7 62.2H127.7L130.2 55.8H129.3L128.4 59.2Z" fill="#11313C"/>
<path d="M115.4 57.3C115.8 57.1 115.9 57 116.1 56.5C116.3 55.9 116.2 54.9 115.6 54.5C114.8 53.9 113 54.1 112 54.2V60.3H112.9V58H114.1L115.5 60.3H116.6L114.8 57.5C115.1 57.4 115.2 57.3 115.4 57.3ZM114.4 57.2H112.9V54.8C113.5 54.7 114.5 54.7 114.8 55C115.2 55.3 115.2 56.3 114.9 56.7C114.8 56.9 114.6 57.1 114.4 57.2Z" fill="#11313C"/>
<path d="M120.8 57.8C120.8 57 120.6 56.2 119.8 55.8C119.4 55.6 119 55.6 118.6 55.8C118 56.1 117.5 56.4 117.1 56.9C116.9 57.3 116.8 57.8 116.8 58.2C116.8 60.2 118.5 60.8 120 60.2L120.6 59.1C120.4 59.2 119.5 59.6 119.1 59.6C118.2 59.6 117.7 59.1 117.7 58.2H120.1L120.8 57.8ZM117.8 57.7C117.8 57.3 117.9 57 118 56.7C118.5 56.4 119.2 56.3 119.6 56.7C119.8 56.9 119.9 57.2 119.9 57.7H117.8Z" fill="#11313C"/>
<path d="M133.5 58.3H131.7V56.9H131.3V60.2H131.7V58.7H133.5V60.2H134V56.9H133.5V58.3Z" fill="#11313C"/>
<path d="M135.6 58.7H137V58.4H135.6V57.3H137.2L137.1 56.9H135.2V60.2H137.1L137.2 59.8H135.6V58.7Z" fill="#11313C"/>
<path d="M139.2 56.9L137.8 60.3H138.3L138.6 59.4H140.3L140.6 60.3H141.1L139.7 56.9H139.2ZM138.8 59L139.5 57.3L140.2 59H138.8Z" fill="#11313C"/>
<path d="M142.4 56.9H142V60.2H143.9V59.8H142.4V56.9Z" fill="#11313C"/>
<path d="M144.1 57.3H145.3V60.2H145.8V57.3H147V56.9H144.1V57.3Z" fill="#11313C"/>
<path d="M150.1 56.9V58.3H148.3V56.9H147.8V60.2H148.3V58.7H150.1V60.2H150.5V56.9H150.1Z" fill="#11313C"/>
</g>
<defs>
<clipPath id="clip0">
<rect width="150.5" height="62.3" fill="white"/>
</clipPath>
</defs>
</svg>
