<svg width="135" height="28" viewBox="0 0 135 28" fill="none" xmlns="http://www.w3.org/2000/svg">
<g clip-path="url(#clip0)">
<path d="M6.89999 20.7V23C6.89999 24.5 5.69999 25.3 3.39999 25.3C1.09999 25.3 -6.10203e-06 24.6 -0.100006 23.1V4.5C-0.100006 3 1.09999 2.3 3.29999 2.3H6.79999C14.5 2.3 18.3 5.4 18.3 11.5C18.3 17.6 14.6 20.7 6.89999 20.7ZM6.89999 9.2V13.8C9.99999 13.8 11.5 13 11.5 11.5C11.5 10 9.99999 9.2 6.89999 9.2Z" fill="#FF7575"/>
<path d="M20.1 2.3C20.1 0.8 20.9 0 22.4 0H24.7C26.3 0 27 0.8 27 2.3V4.6C27 6.1 26.2 6.9 24.7 6.9H22.4C20.9 6.9 20.1 6.1 20.1 4.6V2.3V2.3ZM27 23C27 24.5 25.8 25.3 23.5 25.3C21.2 25.3 20.1 24.6 20 23.1V11.4C20 9.9 21.2 9.2 23.5 9.2C25.8 9.2 27 10 27 11.5V23Z" fill="#FF7575"/>
<path d="M38.6 20.7C40.1 20.7 40.9 20 40.9 18.5C40.9 17 42.1 16.2 44.4 16.2C46.7 16.2 47.8 16.9 47.9 18.4V18.5C47.9 24.6 44.8 27.6 38.7 27.6V27.7C32.6 27.7 29.5 23.9 29.5 16.2V13.9C29.5 6.2 32.6 2.3 38.7 2.3V2.4C44.8 2.4 47.9 5.4 47.9 11.5V11.6C47.9 13.1 46.7 13.8 44.4 13.8C42.1 13.8 40.9 13 40.9 11.5C40.9 10 40.1 9.3 38.6 9.3V9.1C37.1 9.1 36.3 10.7 36.3 13.8V16.1C36.3 19.2 37 20.7 38.6 20.7Z" fill="#FF7575"/>
<path d="M68.5 25.3C68.5 26.8 67.3 27.6 65 27.6C62.7 27.6 61.5 26.8 61.5 25.3V20.7H57V23C57 24.5 55.8 25.3 53.5 25.3C51.2 25.3 50.1 24.6 50 23.1V13.8C50 6.1 53.1 2.3 59.2 2.3C65.3 2.3 68.4 6.1 68.4 13.8V25.3H68.5ZM57 13.8H61.6C61.6 10.7 60.8 9.2 59.3 9.2C57.7 9.2 57 10.7 57 13.8Z" fill="#FF7575"/>
<path d="M88.2 13.6C88.7 13.9 89.1 14.1 89.4 14.4C89.7 14.6 90 14.9 90.3 15.2C91.1 16.4 91.6 17.8 91.6 19.3C91.6 21.8 90.7 23.8 88.9 25.2C87 26.8 84.3 27.6 80.8 27.6C77.9 27.6 75.4 26.9 73.5 25.5C71.8 24.3 70.9 22.9 70.9 21.5C70.9 19.3 72.2 18.2 74.9 18.2C75.9 18.2 76.9 18.6 77.9 19.5C79 20.3 80.5 20.8 82.4 20.8C83.9 20.8 84.7 20.3 84.7 19.3C84.7 18.8 83.6 18.3 81.3 17.9C81 17.8 80.3 17.6 79.2 17.3C78.2 17 77.4 16.8 76.7 16.6C74.6 15.9 73.1 15 72.1 13.9C71.3 12.8 70.9 11.6 70.9 10.2C70.9 7.9 71.8 6.1 73.6 4.7C75.5 3.2 78.2 2.5 81.7 2.5C84.6 2.5 87.1 3.2 89 4.5C90.7 5.7 91.6 6.9 91.6 8.2C91.6 10.2 90.3 11.3 87.6 11.3C86.6 11.3 85.6 10.9 84.6 10.1C83.5 9.3 82 8.9 80.1 8.9C78.6 8.9 77.8 9.4 77.8 10.3C77.8 10.8 78.9 11.2 81.2 11.6C81.5 11.7 82.2 11.9 83.3 12.2C84.3 12.5 85.1 12.7 85.8 12.8C86.8 12.9 87.7 13.3 88.2 13.6Z" fill="#FF7575"/>
<path d="M110.7 13.6C111.2 13.9 111.6 14.1 111.9 14.4C112.2 14.6 112.5 14.9 112.8 15.2C113.6 16.4 114.1 17.8 114.1 19.3C114.1 21.8 113.2 23.8 111.4 25.2C109.5 26.8 106.8 27.6 103.3 27.6C100.4 27.6 97.9 26.9 96 25.5C94.3 24.3 93.4 22.9 93.4 21.5C93.4 19.3 94.7 18.2 97.4 18.2C98.4 18.2 99.4 18.6 100.4 19.5C101.5 20.3 103 20.8 104.9 20.8C106.4 20.8 107.2 20.3 107.2 19.3C107.2 18.8 106.1 18.3 103.8 17.9C103.5 17.8 102.8 17.6 101.7 17.3C100.7 17 99.9 16.8 99.2 16.6C97.1 15.9 95.6 15 94.6 13.9C93.8 12.8 93.4 11.6 93.4 10.2C93.4 7.9 94.3 6.1 96.1 4.7C98 3.2 100.7 2.5 104.2 2.5C107.1 2.5 109.6 3.2 111.5 4.5C113.2 5.7 114.1 6.9 114.1 8.2C114.1 10.2 112.8 11.3 110.1 11.3C109.1 11.3 108.1 10.9 107.1 10.1C106 9.3 104.5 8.9 102.6 8.9C101.1 8.9 100.3 9.4 100.3 10.3C100.3 10.8 101.4 11.2 103.7 11.6C104 11.7 104.7 11.9 105.8 12.2C106.8 12.5 107.6 12.7 108.3 12.8C109.4 12.9 110.2 13.3 110.7 13.6Z" fill="#FF7575"/>
<path d="M134.7 13.9V16.2C134.7 23.9 131.6 27.7 125.5 27.7C119.4 27.7 116.3 23.9 116.3 16.2V13.9C116.3 6.2 119.4 2.3 125.5 2.3C131.6 2.3 134.7 6.2 134.7 13.9ZM123.2 13.8V16.1C123.2 19.2 124 20.7 125.5 20.7C127 20.7 127.8 19.2 127.8 16.1V13.8C127.8 10.7 127 9.1 125.5 9.1C124 9.1 123.2 10.7 123.2 13.8Z" fill="#FF7575"/>
</g>
<defs>
<clipPath id="clip0">
<rect width="134.7" height="27.7" fill="white"/>
</clipPath>
</defs>
</svg>
