<svg width="500" height="175" viewBox="0 0 500 175" fill="none" xmlns="http://www.w3.org/2000/svg">
<rect width="500" height="175" fill="#FF7575"/>
<g clip-path="url(#clip0)">
<path d="M443.926 84.586C443.963 83.7641 443.963 82.9422 443.851 82.1203C443.666 81.3732 443.517 80.1403 443.443 78.4219C443.332 76.7034 443.294 75.4332 443.294 74.6113C443.183 73.9388 443.109 73.3411 442.997 72.8554C442.886 72.3324 442.774 71.7347 442.589 71.0996C442.217 68.746 441.549 66.3177 440.62 63.8147C439.692 61.3117 438.54 59.1075 437.203 57.2396C436.832 56.6792 436.461 56.1562 436.052 55.6705C435.681 55.1849 435.309 54.6619 434.901 54.1015C433.007 52.1962 430.63 50.4777 427.733 48.9086C424.836 47.3396 422.05 46.4803 419.302 46.2935C417.965 46.2935 416.591 46.3683 415.105 46.5177C413.657 46.6671 412.245 46.966 410.908 47.4517C408.16 48.1988 405.671 49.2449 403.48 50.5524C401.252 51.86 399.358 53.7279 397.723 56.0815C397.241 56.8286 396.758 57.5758 396.238 58.3603C395.718 59.1075 395.235 59.9294 394.752 60.7886C394.084 62.2083 393.527 63.7773 393.044 65.4585L392.487 67.4385C392.301 68.1109 392.19 68.8207 392.19 69.5679C392.078 70.5019 392.041 71.4358 391.967 72.3324C391.93 73.229 391.855 74.2003 391.744 75.2464C391.447 76.666 391.335 78.123 391.335 79.6547C391.521 80.4019 391.484 81.1117 391.187 81.7841V82.4939C391.372 82.7928 391.447 83.0543 391.41 83.2785C391.372 83.5026 391.335 83.7641 391.335 84.063C391.447 84.4366 391.447 84.8102 391.41 85.1837C391.372 85.5573 391.372 85.9309 391.484 86.3045C391.67 86.9769 391.781 87.612 391.781 88.2098C391.781 88.8075 391.818 89.48 391.93 90.1151C391.93 90.6007 391.967 91.1237 392.004 91.6841C392.041 92.2445 392.115 92.7675 392.227 93.2532V94.1871C392.227 94.5234 392.264 94.8222 392.375 95.1211C392.561 95.7936 392.672 96.4286 392.747 97.0264C392.784 97.6241 392.895 98.2966 393.118 98.9317C393.304 99.4173 393.415 99.903 393.489 100.426C393.527 100.949 393.601 101.435 393.712 101.92C394.641 104.76 395.755 107.674 397.055 110.7C398.318 113.726 399.878 116.528 401.735 119.143C403.592 121.758 405.746 123.924 408.197 125.718C410.648 127.511 413.545 128.632 416.851 129.117C417.222 129.229 417.853 129.267 418.708 129.267C419.859 129.267 420.899 129.117 421.827 128.856C423.61 128.482 425.356 127.81 427.064 126.801C428.773 125.792 430.332 124.634 431.744 123.327C433.155 122.019 434.455 120.525 435.644 118.918C436.832 117.312 437.798 115.743 438.54 114.249C439.952 110.924 441.103 107.86 441.957 105.021C442.812 102.182 443.406 98.8943 443.814 95.0837C443.814 94.0377 443.851 92.9917 443.963 91.983C444.074 90.9369 444.111 89.8909 444.111 88.8822V87.1637C443.889 86.1924 443.889 85.3705 443.926 84.586ZM429.515 90.5634C429.33 92.8422 429.07 95.1585 428.735 97.512C428.401 99.8656 427.844 102.182 427.101 104.423C426.358 106.665 425.281 108.682 423.907 110.475C422.533 112.269 420.713 113.763 418.448 114.884C418.262 114.884 418.151 114.921 418.151 114.958C418.151 114.996 418.039 114.996 417.853 114.884C417.482 114.697 417.111 114.51 416.776 114.323C416.442 114.137 416.182 113.912 415.996 113.614C415.439 113.053 414.845 112.493 414.214 111.97C413.582 111.447 413.062 110.812 412.579 110.064C412.394 109.691 412.208 109.392 412.022 109.205C411.54 108.458 411.131 107.711 410.834 107.001C410.5 106.291 410.165 105.544 409.757 104.797C409.46 104.05 409.163 103.34 408.828 102.742C408.494 102.144 408.234 101.435 408.048 100.688C407.863 99.9403 407.677 99.1932 407.491 98.4834C407.306 97.7736 407.12 97.0264 406.934 96.2792C406.748 95.532 406.637 94.7475 406.563 93.9256C406.526 93.1037 406.414 92.3566 406.191 91.572C406.191 91.1985 406.154 90.6381 406.117 89.9283C406.08 89.2185 406.006 88.4713 405.969 87.7241C405.931 86.977 405.857 86.1924 405.746 85.4452C405.634 84.6981 405.597 84.1003 405.597 83.7268C405.411 82.7928 405.3 82.083 405.3 81.5973C405.486 80.9249 405.56 80.2524 405.523 79.6173C405.486 78.9449 405.486 78.2351 405.597 77.4879C405.709 76.8154 405.746 76.1803 405.82 75.5826C405.857 74.9849 405.931 74.2751 406.043 73.5279L406.897 68.8207C407.083 67.4011 407.64 66.2056 408.605 65.2717C408.977 64.2256 409.534 63.4785 410.314 62.9928C411.057 62.5071 411.911 62.0588 412.877 61.5732C413.619 61.2743 414.399 61.0128 415.216 60.7886C416.034 60.5645 416.851 60.4151 417.705 60.4151C418.448 60.4151 419.19 60.6019 419.822 60.9754C420.565 61.349 421.345 61.7226 422.162 62.0962C422.979 62.4698 423.647 63.0302 424.204 63.8147C425.616 65.2343 426.693 67.1396 427.398 69.5679C428.104 71.9962 428.55 74.1256 428.735 76.0309C428.921 76.8902 429.033 77.7494 429.033 78.5713C429.033 79.4305 429.144 80.3271 429.33 81.2611C429.441 82.1951 429.441 83.129 429.404 84.0256C429.367 84.9222 429.367 85.7441 429.478 86.5286V90.5634H429.515Z" fill="white"/>
<path d="M382.013 63.6279V63.4785C381.827 62.9928 381.716 62.4698 381.642 61.9094C381.605 61.349 381.53 60.826 381.419 60.3403C381.233 59.2943 380.973 58.2856 380.639 57.2769C380.305 56.2683 379.896 55.2596 379.413 54.2135C377.631 51.0754 375.179 48.7219 372.171 47.1154C369.126 45.509 365.82 44.6871 362.217 44.6871C360.509 44.6871 358.838 44.9113 357.241 45.3969C355.644 45.8826 354.084 46.4803 352.561 47.2275C351.893 47.5264 351.298 47.8252 350.778 48.1615C350.258 48.4977 349.701 48.9086 349.144 49.3569C347.25 50.5898 345.504 52.2335 343.945 54.3256C342.385 56.4177 341.048 58.6592 339.971 61.0875C338.893 63.5158 338.039 65.9815 337.482 68.4845C336.925 70.9875 336.628 73.3411 336.628 75.5079C336.628 77.3011 336.776 79.2437 337.111 81.2611C337.445 83.3158 337.965 85.2585 338.671 87.1637C339.376 89.069 340.305 90.8249 341.456 92.506C342.607 94.1498 343.907 95.532 345.43 96.5407C346.47 97.4747 347.696 98.3339 349.144 99.0811C350.295 99.6415 351.447 100.202 352.635 100.725C353.824 101.248 355.012 101.734 356.275 102.219C357.241 102.518 358.466 102.966 359.989 103.639C361.512 104.311 362.44 105.171 362.849 106.179C363.035 106.665 363.146 107.188 363.22 107.748C363.257 108.309 363.369 108.832 363.592 109.317C363.889 109.878 363.926 110.55 363.74 111.297C363.629 111.97 363.48 112.53 363.257 113.016C363.035 113.501 362.515 113.838 361.772 114.024C361.029 114.211 360.36 114.323 359.766 114.398C359.209 114.435 358.541 114.473 357.761 114.473C356.721 114.361 355.681 114.099 354.641 113.614L347.399 109.766C346.841 109.579 346.507 109.467 346.396 109.467C345.727 109.467 345.17 109.84 344.687 110.588C344.316 111.26 343.907 111.932 343.462 112.568C343.053 113.24 342.57 113.912 342.125 114.548C340.713 116.714 339.748 118.769 339.265 120.674C338.968 121.534 339.153 122.131 339.822 122.505C341.828 123.85 344.056 125.12 346.507 126.353C346.99 126.652 347.584 126.951 348.29 127.287C348.996 127.623 349.738 127.922 350.481 128.221C351.224 128.52 352.004 128.781 352.747 129.005C353.49 129.229 354.084 129.379 354.455 129.379C354.827 129.379 355.124 129.416 355.309 129.528C355.867 129.715 356.461 129.827 357.018 129.902C357.575 129.939 358.169 129.977 358.726 129.977H359.432C360.1 129.977 360.583 130.089 360.843 130.275H361.252C361.549 130.089 361.995 129.977 362.663 129.977C363.332 129.977 363.815 129.939 364.074 129.827C365.672 129.64 367.38 129.155 369.2 128.333C370.983 127.511 372.617 126.502 374.102 125.195C375.588 123.924 376.814 122.505 377.853 120.936C378.893 119.367 379.525 117.798 379.711 116.191C380.008 114.772 380.119 113.352 380.119 111.932C380.119 111.634 380.082 111.372 379.97 111.073C379.859 110.774 379.859 110.475 379.97 110.064C379.97 109.317 379.822 108.608 379.562 107.935C379.079 105.955 378.336 103.9 377.296 101.808C376.256 99.7162 375.068 97.923 373.731 96.3913C372.877 95.3452 371.911 94.4113 370.834 93.552C369.757 92.6928 368.568 91.9456 367.343 91.2732C366.377 90.7875 365.449 90.4139 364.483 90.0777C363.517 89.7415 362.589 89.3305 361.623 88.8822C360.658 88.5086 359.766 88.1351 358.838 87.7988C357.946 87.4626 357.055 87.0517 356.201 86.6034C354.975 86.043 353.972 85.1837 353.23 84.063C352.487 83.0169 351.967 81.9709 351.67 80.9249C351.373 79.8788 351.15 78.7954 350.964 77.6747C350.853 76.8154 350.853 75.9562 350.89 75.1343C350.927 74.2751 351.038 73.4905 351.261 72.706C351.633 71.2864 352.115 69.792 352.672 68.223C353.23 66.6539 353.935 65.1969 354.789 63.8147C355.644 62.4324 356.721 61.3117 357.984 60.4151C359.246 59.5185 360.806 59.0702 362.589 59.0702C363.629 59.0702 364.632 59.2943 365.56 59.78C366.526 60.2656 366.971 61.1622 366.971 62.4698C367.157 62.9554 367.343 63.4785 367.454 64.0388C367.603 64.5992 367.603 65.2343 367.529 65.8694C367.529 66.6166 367.454 67.4011 367.306 68.223C367.157 69.0449 367.009 69.792 366.823 70.5766C366.637 71.5105 366.451 72.4071 366.34 73.2664C366.229 74.1256 366.117 75.0222 366.117 75.9562C366.117 76.3298 366.34 76.7781 366.823 77.2264C366.934 77.3385 367.009 77.3758 367.12 77.4505C367.231 77.4879 367.306 77.5626 367.417 77.6747C369.014 78.4218 370.797 79.0196 372.691 79.4679C374.585 79.8788 376.442 80.1403 378.225 80.2524C378.893 80.2524 379.376 79.9162 379.636 79.2437C379.933 78.4966 380.193 77.7494 380.49 77.0396C380.788 76.3298 381.01 75.5826 381.196 74.8354C381.308 74.2751 381.419 73.7147 381.568 73.1169C381.716 72.5566 381.827 71.9215 381.939 71.2864C382.05 70.726 382.05 70.1656 382.013 69.5679C381.976 69.0075 382.05 68.3724 382.236 67.7373C382.347 67.0649 382.31 66.3924 382.162 65.7573C382.087 65.0849 382.013 64.3751 382.013 63.6279Z" fill="white"/>
<path d="M327.789 63.6279V63.4785C327.603 62.9928 327.491 62.4698 327.417 61.9094C327.38 61.349 327.306 60.826 327.194 60.3403C327.009 59.2943 326.749 58.2856 326.414 57.2769C326.08 56.2683 325.672 55.2596 325.189 54.2135C323.406 51.0754 320.955 48.7219 317.946 47.1154C314.901 45.509 311.596 44.6871 307.993 44.6871C306.284 44.6871 304.613 44.9113 303.016 45.3969C301.419 45.8826 299.859 46.4803 298.337 47.2275C297.668 47.5264 297.074 47.8252 296.554 48.1615C296.034 48.4977 295.477 48.9086 294.92 49.3569C293.025 50.5898 291.28 52.2335 289.72 54.3256C288.16 56.4177 286.823 58.6592 285.746 61.0875C284.669 63.5158 283.815 65.9815 283.258 68.4845C282.701 70.9875 282.403 73.3411 282.403 75.5079C282.403 77.3011 282.552 79.2437 282.886 81.2611C283.22 83.3158 283.74 85.2585 284.446 87.1637C285.152 89.069 286.08 90.8249 287.232 92.506C288.383 94.1498 289.683 95.532 291.206 96.5407C292.246 97.4747 293.471 98.3339 294.92 99.0811C296.071 99.6415 297.222 100.202 298.411 100.725C299.599 101.248 300.788 101.734 302.051 102.219C303.016 102.518 304.242 102.966 305.765 103.639C307.287 104.311 308.216 105.171 308.624 106.179C308.81 106.665 308.921 107.188 308.996 107.748C309.033 108.309 309.144 108.832 309.367 109.317C309.664 109.878 309.701 110.55 309.516 111.297C309.404 111.97 309.256 112.53 309.033 113.016C308.81 113.501 308.29 113.838 307.547 114.024C306.804 114.211 306.136 114.323 305.542 114.398C304.985 114.435 304.316 114.473 303.536 114.473C302.496 114.361 301.456 114.099 300.416 113.614L293.174 109.766C292.617 109.579 292.283 109.467 292.171 109.467C291.503 109.467 290.946 109.84 290.463 110.588C290.091 111.26 289.683 111.932 289.237 112.568C288.829 113.24 288.346 113.912 287.9 114.548C286.489 116.714 285.523 118.769 285.04 120.674C284.743 121.534 284.929 122.131 285.597 122.505C287.603 123.85 289.831 125.12 292.283 126.353C292.765 126.652 293.36 126.951 294.065 127.287C294.771 127.623 295.514 127.922 296.257 128.221C296.999 128.52 297.779 128.781 298.522 129.005C299.265 129.229 299.859 129.379 300.231 129.379C300.602 129.379 300.899 129.416 301.085 129.528C301.642 129.715 302.236 129.827 302.793 129.902C303.35 129.939 303.945 129.977 304.502 129.977H305.207C305.876 129.977 306.359 130.089 306.619 130.275H307.027C307.324 130.089 307.77 129.977 308.439 129.977C309.107 129.977 309.59 129.939 309.85 129.827C311.447 129.64 313.155 129.155 314.975 128.333C316.758 127.511 318.392 126.502 319.878 125.195C321.363 123.924 322.589 122.505 323.629 120.936C324.669 119.367 325.3 117.798 325.486 116.191C325.783 114.772 325.894 113.352 325.894 111.932C325.894 111.634 325.857 111.372 325.746 111.073C325.634 110.774 325.634 110.475 325.746 110.064C325.746 109.317 325.597 108.608 325.337 107.935C324.855 105.955 324.112 103.9 323.072 101.808C322.032 99.7162 320.843 97.923 319.506 96.3913C318.652 95.3452 317.687 94.4113 316.609 93.552C315.532 92.6928 314.344 91.9456 313.118 91.2732C312.153 90.7875 311.224 90.4139 310.258 90.0777C309.293 89.7415 308.364 89.3305 307.399 88.8822C306.433 88.5086 305.542 88.1351 304.613 87.7988C303.722 87.4626 302.83 87.0517 301.976 86.6034C300.751 86.043 299.748 85.1837 299.005 84.063C298.262 83.0169 297.742 81.9709 297.445 80.9249C297.148 79.8788 296.925 78.7954 296.739 77.6747C296.628 76.8154 296.628 75.9562 296.665 75.1343C296.702 74.2751 296.814 73.4905 297.037 72.706C297.408 71.2864 297.891 69.792 298.448 68.223C299.005 66.6539 299.711 65.1969 300.565 63.8147C301.419 62.4324 302.496 61.3117 303.759 60.4151C305.022 59.5185 306.582 59.0702 308.364 59.0702C309.404 59.0702 310.407 59.2943 311.336 59.78C312.301 60.2656 312.747 61.1622 312.747 62.4698C312.933 62.9554 313.118 63.4785 313.23 64.0388C313.378 64.5992 313.378 65.2343 313.304 65.8694C313.304 66.6166 313.23 67.4011 313.081 68.223C312.933 69.0449 312.784 69.792 312.598 70.5766C312.413 71.5105 312.227 72.4071 312.115 73.2664C312.004 74.1256 311.893 75.0222 311.893 75.9562C311.893 76.3298 312.115 76.7781 312.598 77.2264C312.71 77.3385 312.784 77.3758 312.895 77.4505C313.007 77.4879 313.081 77.5626 313.193 77.6747C314.79 78.4218 316.572 79.0196 318.466 79.4679C320.361 79.8788 322.218 80.1403 324 80.2524C324.669 80.2524 325.152 79.9162 325.412 79.2437C325.709 78.4966 325.969 77.7494 326.266 77.0396C326.563 76.3298 326.786 75.5826 326.972 74.8354C327.083 74.2751 327.194 73.7147 327.343 73.1169C327.492 72.5566 327.603 71.9215 327.714 71.2864C327.826 70.726 327.826 70.1656 327.789 69.5679C327.751 69.0075 327.826 68.3724 328.011 67.7373C328.123 67.0649 328.086 66.3924 327.937 65.7573C327.863 65.0849 327.789 64.3751 327.789 63.6279Z" fill="white"/>
<path d="M273.49 128.258C273.304 127.885 273.156 127.548 273.081 127.249C272.97 126.951 272.896 126.652 272.784 126.241C272.227 123.476 271.447 121.048 270.519 118.844L269.256 115.444C268.884 114.398 268.513 113.352 268.179 112.231C267.844 111.148 267.436 110.065 266.99 109.018C266.693 108.159 266.396 107.3 266.062 106.478C265.728 105.619 265.43 104.76 265.133 103.938C264.65 102.817 264.242 101.659 263.87 100.463C263.499 99.2679 263.053 98.1098 262.608 96.989C262.125 95.8683 261.679 94.6728 261.271 93.44C260.862 92.2072 260.379 90.9743 259.934 89.7415C259.005 86.7155 257.854 83.7268 256.517 80.7755C256.22 79.8415 255.923 78.9449 255.588 78.0857C255.254 77.2264 254.957 76.3672 254.66 75.5453C254.288 74.686 253.917 73.8268 253.583 72.9302C253.248 72.0336 252.951 71.0996 252.654 70.1657C252.171 68.8207 251.726 67.5506 251.317 66.243C250.909 64.9728 250.351 63.7026 249.683 62.4698C249.2 61.4238 248.829 60.3777 248.532 59.3317C248.235 58.2857 247.975 57.2396 247.677 56.1936C247.492 55.2596 247.269 54.363 247.046 53.5038C246.823 52.6445 246.6 51.7853 246.415 50.9634C246.229 50.2162 246.006 49.5064 245.709 48.834C245.412 48.1615 245.189 47.4517 245.003 46.7045C244.818 46.2189 244.595 45.8079 244.372 45.4343C244.149 45.0607 243.889 44.6872 243.592 44.3136C242.663 43.0807 241.958 41.8479 241.475 40.6151C241.289 40.1294 240.955 39.9053 240.472 39.9053C240.287 39.9053 240.064 39.9426 239.767 39.98C239.469 40.0173 239.247 40.0547 239.061 40.0547L237.352 40.4657C236.87 40.4657 236.387 40.503 235.867 40.6151C235.347 40.7272 234.864 40.8019 234.381 40.914L230.964 41.7732C229.924 42.1468 229.33 42.7072 229.107 43.4917C228.81 44.4257 228.476 45.3596 228.105 46.2562C227.733 47.1528 227.287 47.9747 226.842 48.7592C226.73 48.946 226.693 49.1328 226.619 49.2449C226.582 49.3943 226.508 49.5438 226.396 49.7306C225.913 50.9634 225.468 52.1589 225.059 53.3543C224.651 54.5498 224.168 55.7453 223.722 56.9781L222.014 61.237C221.531 62.3577 221.085 63.5158 220.677 64.6366C220.268 65.7573 219.785 66.9155 219.34 68.0362C218.002 70.6887 216.777 73.5653 215.663 76.6287C214.548 79.6921 213.546 82.6807 212.691 85.52C211.949 87.7989 211.169 90.003 210.426 92.2072C209.683 94.374 209.015 96.6155 208.457 98.8943C208.086 100.015 207.715 101.173 207.38 102.294C207.046 103.415 206.749 104.573 206.452 105.694C205.969 107.038 205.561 108.346 205.263 109.691C204.929 111.036 204.595 112.343 204.186 113.688C203.444 115.594 202.738 117.611 202.144 119.74C201.549 121.87 201.141 123.962 200.955 126.054C200.844 126.614 200.732 127.175 200.584 127.772C200.435 128.333 200.361 128.893 200.361 129.491L200.064 131.209C199.952 131.77 199.915 132.405 199.915 133.04V134.049C199.915 134.721 200.101 135.095 200.472 135.169C200.844 135.356 201.215 135.468 201.549 135.543C201.884 135.58 202.292 135.618 202.738 135.618C203.035 135.506 203.555 135.468 204.298 135.468C204.595 135.356 205.003 135.319 205.561 135.319H206.823C207.566 135.132 208.16 135.02 208.532 135.02C208.903 135.02 209.497 134.983 210.314 134.945C211.132 134.908 211.652 134.721 211.949 134.46C212.691 133.974 213.211 133.339 213.509 132.48C213.806 131.434 214.103 130.462 214.437 129.566C214.771 128.669 215.068 127.698 215.366 126.652C215.663 125.718 215.923 124.746 216.22 123.812C216.517 122.878 216.777 121.907 217.074 120.973C217.26 120.114 217.483 119.292 217.705 118.47C217.928 117.648 218.151 116.901 218.337 116.117C218.708 114.884 219.08 113.688 219.488 112.493C219.859 111.297 220.379 110.139 221.048 109.018C221.791 107.599 222.942 106.366 224.465 105.32C224.948 104.834 225.505 104.498 226.173 104.311C226.842 104.125 227.51 103.938 228.142 103.751C229.182 103.377 230.222 103.041 231.261 102.742C232.301 102.443 233.341 102.182 234.381 101.883C235.421 101.397 236.498 101.061 237.575 100.874C238.652 100.688 239.804 100.575 241.029 100.575H241.586C241.958 100.389 242.329 100.314 242.738 100.351C243.146 100.389 243.443 100.314 243.741 100.127C244.038 100.127 244.223 100.165 244.298 100.277C244.78 100.463 245.226 100.65 245.709 100.762C246.192 100.912 246.637 101.061 247.12 101.248C247.677 101.621 248.012 101.846 248.123 101.958C248.42 102.257 248.68 102.555 248.903 102.966C249.126 103.34 249.349 103.676 249.534 103.975C250.017 104.349 250.351 104.909 250.537 105.694C250.723 106.366 250.909 106.964 251.094 107.524C251.28 108.085 251.503 108.72 251.8 109.355C252.468 111.073 253.1 112.792 253.694 114.548C254.325 116.303 254.957 118.022 255.588 119.74C255.774 120.488 255.997 121.235 256.22 121.945C256.442 122.654 256.665 123.401 256.851 124.149C257.148 125.195 257.408 126.166 257.705 127.063C258.002 127.959 258.262 128.931 258.559 129.977C258.745 130.649 259.117 131.62 259.637 132.891C260.156 134.161 260.788 134.945 261.531 135.244C262.013 135.431 262.348 135.543 262.608 135.543H263.685C264.056 135.431 264.539 135.394 265.096 135.394C265.765 135.394 266.433 135.244 267.065 134.983C267.547 134.796 268.03 134.609 268.55 134.422C269.07 134.235 269.627 134.049 270.184 133.862C270.853 133.675 271.447 133.451 271.967 133.152C272.487 132.853 273.044 132.592 273.601 132.293C274.158 131.994 274.344 131.396 274.158 130.462C273.824 129.454 273.601 128.744 273.49 128.258ZM241.958 83.9509C241.958 85.2585 241.289 86.1177 239.952 86.4913C239.655 86.4913 239.395 86.5287 239.098 86.566C238.801 86.6034 238.541 86.6407 238.244 86.6407C237.278 86.6407 236.387 86.7155 235.533 86.8649C234.678 87.0143 233.824 87.1638 232.97 87.3506C232.487 87.5374 232.004 87.6868 231.559 87.8362C231.076 87.9856 230.556 88.0604 229.999 88.0604C229.702 88.0604 229.293 87.9483 228.699 87.7615C228.327 87.6494 228.179 87.3506 228.253 86.7902C228.253 85.5574 228.587 84.2872 229.256 82.9796C229.256 82.8675 229.293 82.7928 229.404 82.6807C229.404 82.1951 229.553 81.56 229.85 80.7007C230.147 79.8415 230.444 78.9449 230.779 78.0109C231.113 77.077 231.484 76.143 231.856 75.2464C232.227 74.3498 232.524 73.7147 232.71 73.3411C233.007 72.8555 233.267 72.3698 233.49 71.7721C233.713 71.2117 233.973 70.6513 234.27 70.0909C234.456 69.7921 234.641 69.6053 234.827 69.5306C235.013 69.4185 235.198 69.3064 235.384 69.1196C235.495 69.0075 235.681 68.9702 235.941 68.9702C236.238 68.9702 236.498 69.157 236.795 69.5306C237.092 69.9041 237.352 70.3524 237.65 70.8755C237.947 71.3985 238.17 71.9215 238.355 72.4445C238.541 72.9675 238.69 73.3785 238.801 73.64C239.172 74.686 239.544 75.7321 239.878 76.8155C240.212 77.8989 240.621 78.9449 241.104 79.9909L241.958 82.9423V83.9509Z" fill="white"/>
<path d="M191.262 53.5037L190.407 50.926C189.85 48.7592 188.736 47.0407 187.139 45.8079C185.542 44.5751 183.648 43.7158 181.457 43.2302C179.934 42.8566 178.337 42.5577 176.628 42.3709C176.331 42.3709 176.145 42.3336 176.071 42.2215C175.886 42.1094 175.588 42.0721 175.217 42.0721C174.734 42.0721 174.4 42.1094 174.214 42.2215C174.029 42.3336 173.694 42.3709 173.211 42.3709H172.803C172.134 42.3709 171.652 42.483 171.392 42.6698C169.795 42.6698 167.938 43.0807 165.858 43.8653C163.778 44.6498 162.069 45.4717 160.732 46.2188C157.427 48.1988 154.604 50.7392 152.302 53.7653C149.999 56.7913 147.77 59.9294 145.691 63.1796C144.948 64.5992 144.168 66.0188 143.425 67.4385C142.682 68.8581 141.977 70.3524 141.308 71.8468C140.565 73.9388 139.971 75.9562 139.525 77.8988C139.117 79.8415 138.708 81.8962 138.337 84.1004C138.225 84.4739 138.188 84.8475 138.188 85.1837C138.188 85.52 138.151 85.8562 138.04 86.2671C137.928 87.0143 137.854 87.7241 137.743 88.3966C137.631 89.069 137.594 89.7788 137.594 90.526V94.9343C137.705 95.6815 137.705 96.5407 137.668 97.5121C137.631 98.446 137.631 99.4547 137.743 100.501C137.928 101.248 138.04 102.032 138.114 102.854C138.151 103.676 138.225 104.461 138.337 105.208C138.523 105.768 138.634 106.254 138.634 106.628C138.82 107.188 138.968 107.748 139.043 108.271C139.154 108.794 139.265 109.355 139.451 109.915C139.748 110.662 140.008 111.447 140.231 112.194C140.454 112.941 140.714 113.726 141.011 114.473C141.754 116.378 142.868 118.321 144.354 120.301C145.802 122.281 147.399 123.962 149.107 125.269C149.59 125.755 150.073 126.166 150.593 126.54C151.113 126.913 151.596 127.287 152.079 127.66C153.676 128.706 155.421 129.566 157.315 130.238C159.21 130.911 161.104 131.471 162.998 131.957C163.555 132.069 164.149 132.143 164.706 132.255C165.263 132.368 165.895 132.442 166.563 132.554C167.046 132.554 167.455 132.592 167.826 132.629C168.198 132.666 168.643 132.741 169.089 132.853C169.275 132.965 169.572 133.003 169.943 133.003H171.094C171.652 133.003 172.097 133.04 172.357 133.152C172.357 133.339 172.469 133.339 172.654 133.152C172.84 133.04 173.174 133.003 173.657 133.003C175.18 133.003 176.74 132.928 178.411 132.778C180.082 132.629 181.605 132.293 183.016 131.695C183.202 131.583 183.425 131.546 183.722 131.471C184.019 131.396 184.242 131.359 184.428 131.247C184.911 131.247 185.505 131.135 186.285 130.948C186.842 130.761 187.362 130.5 187.77 130.163C188.179 129.827 188.662 129.491 189.107 129.08C189.664 128.52 189.85 127.847 189.664 127.1C189.479 126.54 189.293 125.942 189.182 125.307C189.033 124.672 188.885 124.037 188.699 123.401C188.216 121.982 187.696 120.562 187.065 119.143C186.433 117.723 185.765 116.341 185.022 114.996C184.651 114.435 184.093 114.137 183.314 114.137C182.942 114.249 182.608 114.435 182.311 114.697C181.828 115.183 181.382 115.556 180.899 115.818C180.417 116.117 179.971 116.378 179.488 116.677C179.005 116.864 178.56 117.051 178.151 117.237C177.743 117.424 177.26 117.648 176.814 117.947C176.443 118.321 176.071 118.508 175.663 118.508H174.363C173.991 118.508 173.546 118.545 173.1 118.657H172.506C171.949 118.657 171.466 118.62 171.094 118.508C170.612 118.395 170.092 118.358 169.535 118.283C168.977 118.209 168.457 118.171 167.975 118.059C162.961 117.76 158.95 115.631 155.904 111.634C155.347 110.886 154.901 110.102 154.567 109.355C154.233 108.608 153.936 107.823 153.639 107.076C153.453 106.403 153.267 105.768 153.156 105.171C153.044 104.573 152.859 103.975 152.673 103.377C152.376 102.443 152.19 101.323 152.116 100.09C152.004 98.857 151.967 97.6988 151.967 96.6528C152.079 96.1671 152.042 95.7188 151.893 95.3079C151.744 94.897 151.744 94.4113 151.819 93.963C151.819 93.5894 151.856 93.2158 151.967 92.8796C152.079 92.5434 152.079 92.2445 151.967 91.9456C151.856 91.1985 151.856 90.4139 151.967 89.5921C152.079 88.7702 152.153 87.9856 152.264 87.2385C152.376 86.6781 152.45 86.1177 152.562 85.52C152.673 84.9222 152.784 84.3245 152.97 83.652C153.156 82.0456 153.564 80.3271 154.159 78.5339C154.79 76.7407 155.496 74.9475 156.35 73.1917C157.204 71.4358 158.133 69.7547 159.172 68.1483C160.212 66.5419 161.215 65.1596 162.144 64.0015L164.706 61.0128C165.003 60.6392 165.338 60.303 165.709 60.0041C166.081 59.7053 166.415 59.4437 166.712 59.1449C166.898 58.9581 167.046 58.846 167.12 58.846C167.232 58.846 167.306 58.8087 167.418 58.6966C169.423 57.6505 171.689 56.9034 174.214 56.4177C174.326 56.4177 174.4 56.3804 174.511 56.343C174.623 56.3056 174.697 56.2683 174.808 56.2683C174.994 56.2683 175.366 56.3804 175.96 56.5671C176.517 56.7539 177 56.866 177.371 56.866C177.928 56.866 178.448 57.2022 178.931 57.8747C179.674 59.0328 180.268 60.1536 180.639 61.3117C181.011 62.1709 181.531 62.5819 182.199 62.5819C182.385 62.5819 182.571 62.5445 182.756 62.4324C183.239 62.2456 183.685 62.0962 184.168 62.0215C184.651 61.9094 185.096 61.7973 185.579 61.6105C185.616 61.5732 185.653 61.5732 185.728 61.5358L186.173 61.3117C186.359 61.1249 186.545 60.9754 186.73 60.9007C187.585 60.5271 188.662 60.0041 189.924 59.3317C191.187 58.6592 191.856 57.7626 191.856 56.6419C191.744 56.0815 191.67 55.5211 191.559 54.9981C191.447 54.6245 191.336 54.0641 191.262 53.5037Z" fill="white"/>
<path d="M126.378 39.1207C126.081 39.0087 125.858 38.9339 125.598 38.8219C125.375 38.7098 125.115 38.6351 124.818 38.523C123.964 38.1494 122.998 37.9626 121.884 37.9626H119.655C118.913 37.9626 118.17 38 117.427 38.112C116.498 38.2988 115.793 38.4856 115.31 38.6724C114.382 39.2328 113.899 40.0547 113.899 41.1007C113.787 41.4743 113.787 41.8105 113.899 42.1094C114.01 42.4083 114.084 42.7071 114.196 43.1181C114.382 43.6037 114.53 44.0521 114.604 44.463C114.716 44.8739 114.641 45.3222 114.456 45.8079C114.344 46.2936 114.344 46.6671 114.382 47.0034C114.419 47.3396 114.419 47.6758 114.307 48.0868C114.307 48.3856 114.344 48.6471 114.456 48.8713C114.567 49.0954 114.604 49.3196 114.604 49.5064C114.493 51.4117 114.493 53.2796 114.604 55.1102C114.716 56.9407 114.641 58.846 114.456 60.7139C114.27 61.9468 114.196 63.1422 114.233 64.3377C114.27 65.5332 114.27 66.7287 114.159 67.9615C113.973 72.1456 113.973 76.2924 114.159 80.4766C114.159 88.8075 114.307 97.1011 114.567 105.357C114.679 107.711 114.679 110.065 114.641 112.343C114.604 114.622 114.493 116.938 114.307 119.329V125.157C114.419 126.203 114.419 127.361 114.382 128.632C114.344 129.902 114.419 131.209 114.604 132.554C114.716 133.04 114.716 133.488 114.679 133.899C114.641 134.31 114.641 134.758 114.753 135.244C115.05 136.365 115.719 136.963 116.87 136.963C117.724 136.963 118.541 136.925 119.395 136.813C120.25 136.701 121.067 136.664 121.921 136.664H123.035C123.778 136.477 124.521 136.328 125.226 136.253C125.932 136.141 126.638 136.103 127.418 136.103H127.715C128.272 135.805 128.569 135.394 128.569 134.833V132.891C128.569 132.33 128.532 131.807 128.42 131.321C128.309 130.836 128.309 130.388 128.42 129.977C128.532 129.566 128.569 129.117 128.569 128.632C128.68 126.465 128.68 124.261 128.643 122.094C128.606 119.927 128.606 117.723 128.718 115.556C128.903 113.763 128.978 111.97 128.94 110.139C128.903 108.346 128.829 106.478 128.718 104.61C128.532 102.63 128.495 100.613 128.569 98.5581C128.643 96.5034 128.606 94.486 128.42 92.506C128.235 90.7875 128.198 89.1064 128.272 87.3879C128.383 85.6694 128.309 83.9136 128.123 82.1204C128.012 81.0743 128.012 80.0283 128.049 78.9075C128.086 77.8241 128.16 76.7034 128.272 75.5826C128.458 73.9762 128.495 72.3324 128.42 70.6887C128.309 69.0449 128.383 67.3637 128.569 65.6453C128.68 64.1136 128.718 62.6192 128.792 61.0875C128.829 59.5558 128.866 58.0615 128.866 56.5298V46.1068C128.866 45.6211 128.903 45.0981 129.015 44.5377C129.126 43.9773 129.163 43.4543 129.163 42.9687C129.052 41.0634 128.16 39.7932 126.378 39.1207Z" fill="white"/>
<path d="M103.537 58.0241C102.125 54.6245 99.934 52.1215 96.9628 50.5524C93.9916 48.9834 90.7604 48.0494 87.2692 47.7879C86.6007 47.6011 86.0065 47.5264 85.4494 47.5638C84.8923 47.6011 84.2609 47.5264 83.6295 47.3396H80.1012C79.9155 47.3396 79.7298 47.377 79.6184 47.489C79.5069 47.6011 79.3584 47.6011 79.247 47.489C78.9498 47.377 78.5042 47.3396 77.8356 47.3396C77.0928 47.3396 76.4986 47.377 76.1272 47.489C75.5701 47.6011 74.9758 47.6385 74.3445 47.6385C73.7131 47.6385 73.0817 47.6758 72.4503 47.7879C71.7818 47.7879 71.1504 47.8253 70.5562 47.9373C69.9619 48.0494 69.2563 48.0868 68.5135 48.0868C67.7707 48.2736 67.065 48.3856 66.4708 48.4604C65.8765 48.4977 65.2823 48.5724 64.688 48.6845C64.2052 48.7966 63.6852 48.8339 63.1281 48.9087C62.571 48.9834 62.0511 49.0581 61.5683 49.2822C60.714 49.3943 59.7484 49.6558 58.6713 49.9547C57.5943 50.2536 57.0372 51.0381 57.0372 52.1588C56.9257 53.0928 56.9629 54.0268 57.1114 54.9234C57.26 55.82 57.3343 56.7539 57.3343 57.6879V58.0988C57.6314 59.0328 57.7428 60.0415 57.7428 61.0875V75.5826C57.6314 77.5626 57.6314 79.58 57.6685 81.6347C57.7057 83.6894 57.6314 85.7441 57.4457 87.8362C57.4457 88.3966 57.4828 88.957 57.52 89.5547C57.5571 90.1151 57.6314 90.7502 57.7428 91.3853C57.8542 92.6181 57.8542 93.8136 57.7428 95.009C57.6314 96.2045 57.7057 97.4 57.8914 98.6328C58.0028 99.38 58.0028 100.09 57.9657 100.688C57.9285 101.285 58.0028 101.995 58.1885 102.742C58.2999 103.303 58.2999 103.9 58.2628 104.535C58.2257 105.171 58.2257 105.806 58.3371 106.441C58.5228 107.001 58.5971 107.561 58.5599 108.085C58.5228 108.608 58.5228 109.093 58.6342 109.579C58.7456 110.625 58.7456 111.708 58.6342 112.866C58.6342 113.352 58.6713 113.838 58.7828 114.361C58.8942 114.884 58.9313 115.444 58.9313 116.005V120.002C58.9313 120.488 58.9685 120.861 59.0056 121.197C59.0427 121.534 59.117 121.87 59.2284 122.281C59.4141 123.028 59.5627 123.775 59.637 124.485C59.7113 125.195 59.8598 125.942 60.0455 126.689C60.2312 127.249 60.4541 127.623 60.7512 127.81C60.9369 127.922 61.1597 127.997 61.3826 128.109C61.6054 128.221 61.8282 128.258 62.0139 128.258H62.571C63.0539 128.258 63.4995 128.295 63.9824 128.333C64.4652 128.37 64.9109 128.408 65.3937 128.408C67.4735 128.408 69.5534 128.258 71.5961 127.997C72.3389 127.885 72.8217 127.623 73.0074 127.212C73.1931 126.801 73.2303 126.353 73.156 125.867C73.0446 125.568 73.0074 125.157 73.0074 124.597C72.896 123.85 72.9331 123.14 73.0817 122.542C73.2303 121.945 73.2303 121.235 73.156 120.488C73.156 119.068 73.1188 117.648 73.0817 116.229C73.0446 114.809 73.0074 113.352 73.0074 111.82C72.896 110.961 72.8217 110.102 72.7103 109.205C72.5989 108.309 72.5989 107.412 72.7103 106.59V106.179C72.4132 105.432 72.3389 104.648 72.4132 103.9C72.5246 103.153 72.7103 102.369 72.9703 101.621C72.9703 101.136 73.1188 100.874 73.3788 100.762C73.7502 100.575 74.0473 100.351 74.233 100.127C74.4187 99.903 74.6416 99.6788 74.9387 99.4921C75.6815 99.1185 76.3129 98.9317 76.7586 98.9317C77.4271 98.8196 78.0956 98.7822 78.727 98.7075C79.3955 98.6702 80.064 98.5954 80.6954 98.4834C81.4382 98.2966 82.1439 98.1098 82.7381 97.9977C83.3324 97.8483 84.0009 97.6988 84.6323 97.5121C86.7121 96.9517 88.5691 96.3913 90.2033 95.7936C91.8375 95.2332 93.3602 94.5234 94.7344 93.6641C96.1086 92.8049 97.3342 91.6841 98.4855 90.3392C99.5997 88.957 100.714 87.2011 101.717 84.997C102.385 83.9509 102.942 82.7181 103.425 81.2985C104.094 79.6921 104.614 77.9736 104.985 76.1056C105.356 74.2377 105.654 72.3698 105.654 70.6513V69.2317C105.654 67.3264 105.505 65.3838 105.245 63.4038C104.948 61.4238 104.391 59.6305 103.537 58.0241ZM90.7975 70.5392C90.7975 71.2864 90.6861 72.2577 90.4261 73.4532C90.2033 74.6487 89.7947 75.8441 89.2748 77.0396C88.7548 78.2724 88.1234 79.3558 87.4178 80.2898C86.7121 81.2237 85.9322 81.7841 85.0408 81.9709C84.0752 82.2698 83.1467 82.5687 82.2553 82.9049C81.3639 83.2411 80.3612 83.5026 79.3212 83.6894C78.8384 83.8015 78.4299 83.8388 78.0213 83.9136C77.6499 83.9509 77.2042 83.9883 76.7214 83.9883C76.2386 83.8762 75.8301 83.8388 75.4958 83.8388H74.2702C73.4902 83.9509 72.8589 83.7268 72.3389 83.2785C71.8189 82.7928 71.559 82.083 71.559 81.149C71.559 80.8502 71.5218 80.626 71.4104 80.3645C71.299 80.1404 71.2618 79.8788 71.2618 79.58C71.4475 78.9075 71.4104 78.3471 71.1133 77.8988C71.0018 77.7121 71.0018 77.5626 71.039 77.4879C71.0761 77.3758 71.1133 77.2637 71.1133 77.077V70.5392C71.1133 67.6253 71.559 65.4585 72.4132 64.0388C73.3417 62.6192 75.3844 61.9094 78.6527 61.9094H82.6638C83.2209 61.9094 83.7781 61.9468 84.2237 62.0588C85.2637 62.0588 86.3779 62.1709 87.5663 62.3577C88.7548 62.5445 89.609 63.1422 90.0547 64.1883C90.2404 64.6739 90.4261 65.1596 90.5376 65.6826C90.6861 66.2056 90.7604 66.7287 90.7604 67.289V70.5392H90.7975Z" fill="white"/>
</g>
<defs>
<clipPath id="clip0">
<rect width="387" height="99" fill="white" transform="translate(57 38)"/>
</clipPath>
</defs>
</svg>
